<svg id="Layer_1" data-name="Layer 1" xmlns="http://www.w3.org/2000/svg" viewBox="0 0 916.65 160.68"><defs><style>.cls-1{fill:#7dbf39;}.cls-2{fill:#006a1d;}</style></defs><title>Artboard 1</title><path class="cls-1" d="M35.52,116.2V14.5c0-1.89,1.08-3.52,3.24-4.87a13.54,13.54,0,0,1,7.31-2,14,14,0,0,1,7.41,2c2.23,1.35,3.35,3,3.35,4.87V51.65H81.6A5,5,0,0,1,85.86,54a10.44,10.44,0,0,1,0,11.17,5,5,0,0,1-4.26,2.33H56.83V116.2q0,7.32,3.15,10.36t11.06,3h7.1a8.65,8.65,0,0,1,6.7,2.64,9.86,9.86,0,0,1,0,13,8.65,8.65,0,0,1-6.7,2.64H71Q35.52,147.87,35.52,116.2Z"/><path class="cls-1" d="M160.18,103.82a47.17,47.17,0,0,0,6.9-.41,19.23,19.23,0,0,0,5.69-2,9.35,9.35,0,0,0,4.46-5.38,29.35,29.35,0,0,0,1.42-10,34.16,34.16,0,0,0-11.87-26.65Q154.9,48.81,138.26,48.81a41.94,41.94,0,0,0-29.84,11.67Q96,72.15,96,88.19v19.28q0,18.07,13.2,29.24t33.9,11.16q14.2,0,24-5.11t9.75-10.14a10.66,10.66,0,0,0-2.44-6.31,7.18,7.18,0,0,0-5.89-3.26q-1.62,0-9,3.88a33.3,33.3,0,0,1-15.73,3.89q-11.78,0-19.08-6t-7.31-16.27v-4.7Zm-42.83-20a17.09,17.09,0,0,1,6.09-13.49,21.51,21.51,0,0,1,14.61-5.29,20.41,20.41,0,0,1,14.62,5.59,18.07,18.07,0,0,1,5.89,13.59q0,3.58-1.53,4.79c-1,.8-3,1.2-6,1.2h-33.7Z"/><path class="cls-1" d="M256.4,103.82a47.17,47.17,0,0,0,6.9-.41,19.23,19.23,0,0,0,5.69-2,9.35,9.35,0,0,0,4.46-5.38,29.35,29.35,0,0,0,1.42-10A34.13,34.13,0,0,0,263,59.37q-11.88-10.56-28.52-10.56a41.94,41.94,0,0,0-29.84,11.67q-12.39,11.67-12.39,27.71v19.28q0,18.07,13.2,29.24t33.9,11.16q14.21,0,24-5.11t9.75-10.14a10.66,10.66,0,0,0-2.44-6.31,7.18,7.18,0,0,0-5.89-3.26q-1.62,0-9,3.88A33.28,33.28,0,0,1,240,130.82q-11.78,0-19.08-6t-7.31-16.27v-4.7Zm-42.83-20a17.09,17.09,0,0,1,6.09-13.49,21.51,21.51,0,0,1,14.61-5.29,20.41,20.41,0,0,1,14.62,5.59,18.07,18.07,0,0,1,5.89,13.59q0,3.58-1.53,4.79c-1,.8-3,1.2-6,1.2h-33.7Z"/><path class="cls-2" d="M292,118.07V11.25a4.13,4.13,0,0,1,2-3.45,7.65,7.65,0,0,1,4.46-1.42,7.91,7.91,0,0,1,4.67,1.42,4.12,4.12,0,0,1,2,3.43V51.85h26.19a4.12,4.12,0,0,1,3.35,1.66,6.51,6.51,0,0,1,0,7.86A4.11,4.11,0,0,1,331.33,63H305.14v54.75q0,9.87,4.17,13.8T324,135.49h5.69a5.81,5.81,0,0,1,4.36,1.78,6,6,0,0,1,1.73,4.31,6.32,6.32,0,0,1-1.73,4.4,5.66,5.66,0,0,1-4.36,1.89H324Q292,147.87,292,118.07Z"/><path class="cls-2" d="M351.63,109.71V55.51a4.55,4.55,0,0,1,1.93-3.45,7.1,7.1,0,0,1,4.77-1.63,7,7,0,0,1,4.46,1.62,4.48,4.48,0,0,1,2,3.44v54.08a25.45,25.45,0,0,0,7.51,18,24.15,24.15,0,0,0,35.73,0,25.41,25.41,0,0,0,7.51-18V55.29a4.14,4.14,0,0,1,2-3.44,8,8,0,0,1,4.67-1.42,7.55,7.55,0,0,1,4.57,1.42,4.21,4.21,0,0,1,1.93,3.45v54.41q0,15.23-11.47,26.69t-27.1,11.47A36.92,36.92,0,0,1,363,136.4Q351.63,124.94,351.63,109.71Z"/><path class="cls-2" d="M447.74,142.59V56.73a4.24,4.24,0,0,1,1.82-3.46,7.44,7.44,0,0,1,4.67-1.42,7.06,7.06,0,0,1,4.47,1.44,4.31,4.31,0,0,1,1.82,3.5V66.87a32.1,32.1,0,0,1,10.76-11.51,29,29,0,0,1,16.45-4.72h7.1a4.83,4.83,0,0,1,3.66,1.85,6.61,6.61,0,0,1,0,8.67A4.81,4.81,0,0,1,494.83,63h-7.1q-10.56,0-18.68,8.2t-8.12,21.37v50a4.69,4.69,0,0,1-1.93,3.64,7.16,7.16,0,0,1-4.77,1.62,6.89,6.89,0,0,1-4.57-1.62A4.73,4.73,0,0,1,447.74,142.59Z"/><path class="cls-2" d="M513.12,118.07V11.25a4.15,4.15,0,0,1,2-3.45,7.66,7.66,0,0,1,4.47-1.42,7.94,7.94,0,0,1,4.67,1.42,4.12,4.12,0,0,1,2,3.43V51.85H552.5a4.11,4.11,0,0,1,3.35,1.66,6.51,6.51,0,0,1,0,7.86A4.1,4.1,0,0,1,552.5,63H526.32v54.75q0,9.87,4.16,13.8t14.72,3.92h5.68a5.8,5.8,0,0,1,4.36,1.78,6,6,0,0,1,1.73,4.31,6.32,6.32,0,0,1-1.73,4.4,5.64,5.64,0,0,1-4.36,1.89H545.2Q513.11,147.87,513.12,118.07Z"/><path class="cls-2" d="M576.84,142.62V11.23a4.23,4.23,0,0,1,1.83-3.44,7.48,7.48,0,0,1,4.67-1.41,8,8,0,0,1,4.77,1.41A4.19,4.19,0,0,1,590,11.23V142.62a4.72,4.72,0,0,1-1.93,3.64,7.17,7.17,0,0,1-4.77,1.61,6.86,6.86,0,0,1-4.57-1.61A4.69,4.69,0,0,1,576.84,142.62Z"/><path class="cls-2" d="M667.06,102.4a43.24,43.24,0,0,0,6.7-.4,20.26,20.26,0,0,0,5.38-1.83,8.46,8.46,0,0,0,4.26-4.86,25.94,25.94,0,0,0,1.32-9.11,34.73,34.73,0,0,0-11.27-26.42,39.23,39.23,0,0,0-54.1.5Q608,71.35,608,86.57V109.3q0,17.27,12.18,27.91t31.46,10.66q13,0,21.72-4.57t8.73-8.83a6.73,6.73,0,0,0-1.72-4.16,5.05,5.05,0,0,0-4-2.13c-1.09,0-2.54.68-4.37,2a34.61,34.61,0,0,1-7.91,4.06,32.88,32.88,0,0,1-12.08,2q-13.6,0-22.23-7.21t-8.63-19.18V102.4ZM621.18,85a23.45,23.45,0,0,1,7.41-17.35,24.73,24.73,0,0,1,18-7.26,23.9,23.9,0,0,1,18.17,7.67,25.13,25.13,0,0,1,7.2,17.75q0,4.23-2,5.55t-8.12,1.31h-40.6Z"/><path class="cls-2" d="M783.55,137.38c-1.58,6.4-33.11,29.43-24.84-24.66-2.06-7.27-1.81-7.85-1.15-14,0-.15-12.86-8.32-15.58-10.53a39.36,39.36,0,0,1-14.7-37.64c.33-2.18.58-4.37,1-6.54,14-46.91,46.08-43.53,63.19-27.31,10.26,9.74,11.77,21.26,13.83,29.48,0,.13,0,.26.08.42a50.37,50.37,0,0,1,9.91-3.86c19.33-3.57,31,6,31.81,6.57l.32.26a34.47,34.47,0,0,1,8,7.65c10.74,14,18.28,41.4,17.85,46a.57.57,0,0,0,.26.4c6.92,2.12,6.67,10.08,5.22,12.07a.32.32,0,0,0,.17.42c.74.46,1.49.91,2.21,1.41,1.35,1,8.89,11.31-4.91,15.16a.51.51,0,0,0-.36.52c1.37,9-11.7,22.76-31.14,5.4-.21-.22-.36-.28-.62-.16-2.86,3.22-24.46,5.4-28.29,4.81a29.41,29.41,0,0,1-7.93,8c-1.6,1-19.74,10-22.18-12.45C785.57,138.45,784.08,137.63,783.55,137.38Z"/><path class="cls-1" d="M736.89,38.61c3.83-10.77,10.32-17.2,13.24-19,10-7,17.28-5.76,21.51-4.67,7.68,1.82,29,8.37,27.64,49.73a34.86,34.86,0,0,0,.27,5.3,30.56,30.56,0,0,0,1.71,6.9,9.93,9.93,0,0,1,.55,4.23c-.11,4-4.33,28-18.7,25.88-4.86-.55-12.51-4.26-19.79-10.18-1.41-1.23-10.72-8.23-11.75-9-1.36-1-2.68-2.1-4-3.22-1.54-1.33-3-2.73-4.54-4.11a35.32,35.32,0,0,1-6.22-8.57,28,28,0,0,1-3.07-13.26C733.94,53.55,734.2,45.15,736.89,38.61Z"/><path class="cls-1" d="M793.09,125.93c1.61-6.59,2-9.24,4.84-10.77,8.12-4.36,21.26,8.52,18.57,14.8a25.33,25.33,0,0,1-10.83,15.62c-1.56,1.11-11.94,5.74-13.61-5.19A36.71,36.71,0,0,1,793.09,125.93Z"/><path class="cls-1" d="M842.61,53.9c.85.74,1.63,1.41,2.4,2.1.07.07,0,.28,0,.4a16.85,16.85,0,0,1-1.43,3.71c-.15.26-.08.39.12.58a70.15,70.15,0,0,1,7,7.7,66.19,66.19,0,0,1,4.14,6.11c.71,1.16,1.32,2.39,2,3.61a.62.62,0,0,0,.68.36c.45,0,.91-.07,1.37-.07a.5.5,0,0,1,.37.19c.24.6.45,1.21.68,1.81.11.3,0,.42-.31.44-.65,0-1.31.11-2,.2-.1,0-.25.19-.27.3A60.93,60.93,0,0,1,855,91.77a33.43,33.43,0,0,1-1.22,3.2,1.86,1.86,0,0,0,.22,2,45.58,45.58,0,0,1,4.25,7.27c.32.73.63,1.48,1,2.21.12.26.09.41-.17.56-.68.39-1.35.81-2.08,1.25-.16-.4-.32-.78-.46-1.18a26,26,0,0,0-2.3-4.6c-.84-1.46-1.77-2.86-2.66-4.28a3.21,3.21,0,0,0-.21-.3,1.78,1.78,0,0,0-1.76-.93c-1.47.12-3,.13-4.42.13-2.52,0-5,0-7.54-.08-.76,0-1.51,0-2.26,0s-.66.09-.92.69c-.72,1.71-1.45,3.41-2.23,5.09-.59,1.24-1.24,2.44-1.9,3.64-1,1.89-2.1,3.78-3.19,5.64-.68,1.16-1.44,2.27-2.18,3.39a6.91,6.91,0,0,1-.44.57c-.27-.33-.53-.61-.76-.91s-.64-.86-1-1.29c-.12-.16-.2-.29,0-.5a76.22,76.22,0,0,0,4.46-7.28,71.26,71.26,0,0,0,3.52-7.38c.14-.36.33-.7.5-1.05a1.08,1.08,0,0,0-.11-1.2c-1.27-1.66-2.52-3.35-3.81-5s-2.85-3.5-4.24-5.28c-1-1.35-2-2.73-3-4.12a2.35,2.35,0,0,0-2.09-1c-1.8,0-3.6-.08-5.4-.09-.39,0-.53-.15-.59-.52-.11-.62-.28-1.23-.42-1.84,0-.13,0-.26-.07-.37.8,0,1.56.06,2.32.07l3.58,0c.49,0,1,0,1.45,0s.53-.06.59-.42c.25-1.51.53-3,.77-4.53.28-1.87.55-3.74.78-5.62.15-1.23.23-2.46.32-3.69.07-.81.11-1.61.16-2.42a1.64,1.64,0,0,0-.86-1.65,26.46,26.46,0,0,0-3.49-1.75c-2.57-.95-5.17-1.83-7.78-2.63-1.3-.4-2.68-.56-4-.84a.48.48,0,0,1,.08-.16c.69-.63,1.39-1.26,2.1-1.87a.83.83,0,0,1,.5-.11,20,20,0,0,1,5.07,1,61.8,61.8,0,0,1,10,4.07.88.88,0,0,0,.6,0,19,19,0,0,1,7-.91c2.14.12,4.26.53,6.39.84a17.82,17.82,0,0,1,1.93.39,16,16,0,0,1,1.57.5c.53.2.69.15.88-.38.36-1,.71-2,1-3A11.24,11.24,0,0,0,842.61,53.9Z"/><path class="cls-1" d="M803.13,72.2c.41.24,7.17,3,5.39,14.44-.51,3.23-2.82,7.25-4.2,10.19a44.32,44.32,0,0,0-1.81,4.78,5.94,5.94,0,0,0-.16,3,3,3,0,0,0,.59,1.2c3.13,2.84,11.9,2.42,17.16,11.94a27.84,27.84,0,0,0,2.77,3.35,12.14,12.14,0,0,0,8.74,3.17c1.53,0,7.61-.41,10.57-2.24,2.78-1.32,15.17-10.94,18.4-12.13,8.37-4.57,16.57-1.23,10.57,5.85-.64-1.62-6.61-6.46-18.73,4.4a31,31,0,0,1-7.41,5.31,25,25,0,0,1-16.22,2.69c-7.62-1.48-11.57-8.53-13.08-10.21s-5.3-6.38-14.23-7.79c-1.33-.21-2.7-2.12-3.08-3.38a8.9,8.9,0,0,1,.48-6c.71-1.86,4.64-11.58,5.32-14.92a22.52,22.52,0,0,0,.47-5.13C804.66,79,803.16,72.45,803.13,72.2Z"/><path class="cls-1" d="M792.57,106.14a7.27,7.27,0,0,0,2,5.82l-1.21,1a12.87,12.87,0,0,0-3,3.83,24.26,24.26,0,0,0-2.47,6.92c-.4,1.94-.58,3.92-.83,5.89-.1.78-.14,1.55-.17,2.33,0,.34-.18.35-.42.29a9.61,9.61,0,0,1-1.15-.37,26.93,26.93,0,0,1-3.62-1.65,25.75,25.75,0,0,1-5.73-4.84,24.14,24.14,0,0,1-4-6.14,26.36,26.36,0,0,1-1.5-4.71,39.9,39.9,0,0,1-.68-4.08,5.72,5.72,0,0,1,0-1.17.65.65,0,0,1,.2-.37c.73-.82,1.48-1.63,2.2-2.45a.33.33,0,0,1,.47-.1c1.48.7,3,1.41,4.46,2.06a13.38,13.38,0,0,0,4.53,1.06,15.94,15.94,0,0,0,7.86-1.53A12.17,12.17,0,0,0,792.57,106.14Z"/><path class="cls-1" d="M849.06,132.54c-.49-3.38,13.42-23.55,18.81-12.36.77,1.59,1.26,5.85,1.4,8.61s-.11,4.07-.16,6.34C868.87,146,850.45,142.08,849.06,132.54Z"/><path class="cls-1" d="M766,112c3.48,9.2,9.72,18,11.91,20-2.44,8.63-7.62,11.06-10.35,10.54-5.57-1.06-9.11-14.2-2.43-29.71C765.23,112.36,765.56,112.16,766,112Z"/><path class="cls-1" d="M845.67,129.81c-7.73,8.61-26.8,7.95-28.09,8-.14,0-.28,0-.48-.05,1.56-2.52,2.13-5.31,2.82-8.13l1,.37c6.78,3,18.64,2.23,24.11,0l.46-.16S845.59,129.8,845.67,129.81Z"/><path class="cls-1" d="M761.59,102.82c.18-.7.35-1.4.54-2.09.08-.31.22-.38.55-.17,1.32.84,5.18,2.85,5.14,3.36-.21,2.44-4,3.93-4.21,3.68A8,8,0,0,1,761.59,102.82Z"/><path class="cls-1" d="M874.2,120.07c1,.75,2,1.47,2.95,2.25.79.64.78,1.21.06,1.93a10.36,10.36,0,0,1-3.3,2.12,1,1,0,0,1-.21,0c-.1-.54-.2-1.08-.29-1.62-.17-1.06-.34-2.12-.49-3.18a.67.67,0,0,1,.13-.5C873.41,120.72,873.82,120.4,874.2,120.07Z"/><path class="cls-2" d="M772.67,57.07a9.8,9.8,0,0,1,1.25-4.61,3.83,3.83,0,0,1,6.75-.2,8.37,8.37,0,0,1-.14,8.94,3.88,3.88,0,0,1-3.08,2.08,3.76,3.76,0,0,1-3.6-1.78A6.74,6.74,0,0,1,772.67,57.07Z"/><path class="cls-2" d="M737.39,55.72a9.19,9.19,0,0,1,1.06-4.37,6.63,6.63,0,0,1,1-1.41,1.61,1.61,0,0,1,2.43.09,5.33,5.33,0,0,1,1.23,2.63,9.51,9.51,0,0,1-1,6.67,5.09,5.09,0,0,1-.86,1.11c-1.12,1.08-2.2.71-2.93-.47A6.67,6.67,0,0,1,737.39,55.72Z"/><path class="cls-2" d="M752.64,73.74l1.25.5a19.54,19.54,0,0,0,4.39,1.13,15.71,15.71,0,0,0,6.14-.46,2,2,0,0,0,.34-.12c.51-.2.37-.1.58.39.87,2-4.17,11-12.41-.78a3.9,3.9,0,0,1-.19-.35C752.71,74,752.7,73.92,752.64,73.74Z"/><path class="cls-2" d="M841.25,94.55c-2.22,0-4.46-.06-6.7-.12a6.52,6.52,0,0,1-1.31-.22.66.66,0,0,1-.32-.28c-1.45-1.92-2.87-3.86-4.34-5.76-1.19-1.54-2.47-3-3.67-4.55-1-1.25-1.93-2.55-2.88-3.84a.37.37,0,0,1-.09-.28,70.52,70.52,0,0,0,1.57-9.11c.31-2.66.55-5.32.81-8,0-.56,0-1.13,0-1.69,0-.29.08-.48.37-.53l2.53-.46a19.17,19.17,0,0,1,8.07.18,24.4,24.4,0,0,1,5.73,1.59,5.1,5.1,0,0,1,1.56,1.31c1.28,1.37,2.58,2.74,3.76,4.2,1.67,2.08,3.31,4.2,4.85,6.38a44.1,44.1,0,0,1,3.46,6.19,3.67,3.67,0,0,1,.24,2.41,71.89,71.89,0,0,1-3.26,11.33,1.06,1.06,0,0,1-1.06.82c-1.56.08-3.11.25-4.66.32S842.83,94.52,841.25,94.55Z"/></svg>